<svg xmlns="http://www.w3.org/2000/svg" xmlns:xlink="http://www.w3.org/1999/xlink" width="16" height="16" viewBox="0 0 16 16">
  <defs>
    <clipPath id="clip-path">
      <path id="Path_259447" data-name="Path 259447" d="M264.523,236.759v6.122l.888-1.149,2.162-2.8a1.351,1.351,0,0,0-1.07-2.176Z" transform="translate(-264.523 -236.759)" fill="none"/>
    </clipPath>
    <linearGradient id="linear-gradient" x1="-0.2" y1="1.014" x2="-0.198" y2="1.014" gradientUnits="objectBoundingBox">
      <stop offset="0" stop-color="#662d91"/>
      <stop offset="0.603" stop-color="#da1c5c"/>
      <stop offset="1" stop-color="#f78837"/>
    </linearGradient>
    <clipPath id="clip-path-2">
      <rect id="Rectangle_203078" data-name="Rectangle 203078" width="10.007" height="8.918"/>
    </clipPath>
    <linearGradient id="linear-gradient-2" x1="1" x2="0.266" y2="0.385" gradientUnits="objectBoundingBox">
      <stop offset="0"/>
      <stop offset="1" stop-color="#e1ff00"/>
    </linearGradient>
    <clipPath id="clip-path-3">
      <path id="Path_259449" data-name="Path 259449" d="M0,0V2.793H5.1a1.351,1.351,0,0,1,1.07,2.176L7.85,2.793l0,0L10.007,0Z" transform="translate(0 -0.001)" fill="#e2ff00"/>
    </clipPath>
    <clipPath id="clip-Artboard_9">
      <rect width="16" height="16"/>
    </clipPath>
  </defs>
  <g id="Artboard_9" data-name="Artboard – 9" clip-path="url(#clip-Artboard_9)">
    <g id="Group_425997" data-name="Group 425997" transform="translate(3 3.999)">
      <g id="Group_119" data-name="Group 119" transform="translate(0 -0.001)">
        <g id="Group_114" data-name="Group 114" transform="translate(3.119 2.792)">
          <g id="Group_113" data-name="Group 113" clip-path="url(#clip-path)">
            <rect id="Rectangle_203077" data-name="Rectangle 203077" width="7.125" height="5.968" transform="translate(-2.341 5.032) rotate(-65.048)" fill="url(#linear-gradient)"/>
          </g>
        </g>
        <g id="Group_116" data-name="Group 116">
          <g id="Group_115" data-name="Group 115" clip-path="url(#clip-path-2)">
            <path id="Path_259448" data-name="Path 259448" d="M267.573,238.935l-2.162,2.8-.888,1.149v-6.122H266.5A1.351,1.351,0,0,1,267.573,238.935Z" transform="translate(-261.404 -233.967)" fill="url(#linear-gradient-2)"/>
          </g>
        </g>
        <g id="Group_118" data-name="Group 118" transform="translate(0 0)">
          <g id="Group_117" data-name="Group 117" clip-path="url(#clip-path-3)">
            <rect id="Rectangle_203079" data-name="Rectangle 203079" width="5.321" height="10.178" transform="translate(-0.177 4.962) rotate(-87.962)" fill="#e2ff00"/>
          </g>
        </g>
      </g>
      <ellipse id="Ellipse_23" data-name="Ellipse 23" cx="1.097" cy="1.097" rx="1.097" ry="1.097" transform="translate(7.814 6.717)" fill="#e2ff00"/>
    </g>
  </g>
</svg>
